# xmcd
#
# Track frame offsets:
#	150
#	20540
#	40458
#	64370
#	87011
#	103688
#	120092
#	139780
#	161406
#	182097
#	203720
#	230478
#	237658
#	261261
#	284887
#	306863
#	314044
#
# Disc length: 4412 seconds
# Revision: 0
# Processed by: cddbd v1.5.2PL0 Copyright (c) Steve Scherf et al.
# Submitted via: dBpowerAMP V12.0
#
DISCID=fb113a11
DTITLE=Various Artist - Angels Sing the Blues
DYEAR=2015
DGENRE=Blues
TTITLE0=Al "Guitar" Short - A Real Mother for Ya
TTITLE1=Danny O'Connor - Cold Women With Warm Hearts
TTITLE2=Johnny Drummer - Gonna Sell My Cadillac, Buy Myself a Mule
TTITLE3=Johnny Drummer - Born in the Delta
TTITLE4=Shirley Johnson - Get Your Lovin' Where You Spend Your Time
TTITLE5=Mary Lane - Just As Grown As You
TTITLE6=Mary Lane - Ride in Your Automobile
TTITLE7=Johnny Drummer - Rockin' in the Juke Joint
TTITLE8=Shirley Johnson - I'm Going to Find Me a Lover
TTITLE9=Shirley Johnson - Unchain My Heart
TTITLE10=Mary Lane - You Can Have My Husband But Please Don't Mess With My Man
TTITLE11=Liz Mandeville - Johnny Drummer introduces
TTITLE12=Liz Mandeville - Use What You Got
TTITLE13=Liz Mandeville - I Just Want to Make Love to You
TTITLE14=Liz Mandeville - Angel From Montgomery
TTITLE15=Jake Elwood Blues Band - Please Don't Kill Us
TTITLE16=Mary Lane - Run a Red Light
EXTD=
EXTT0=
EXTT1=
EXTT2=
EXTT3=
EXTT4=
EXTT5=
EXTT6=
EXTT7=
EXTT8=
EXTT9=
EXTT10=
EXTT11=
EXTT12=
EXTT13=
EXTT14=
EXTT15=
EXTT16=
PLAYORDER=
